<?xml version="1.0" encoding="utf-8" ?>
<svg baseProfile="full" height="800" version="1.1" width="800" xmlns="http://www.w3.org/2000/svg" xmlns:ev="http://www.w3.org/2001/xml-events" xmlns:xlink="http://www.w3.org/1999/xlink"><defs /><rect fill="black" height="100%" width="100%" x="0" y="0" /><circle cx="400.0" cy="400.0" fill="none" r="60" stroke="red" stroke-width="3" /><text fill="white" font-size="40px" x="383.0" y="410.0">👁️</text><text fill="orange" font-size="28px" x="388.0" y="445.0">🔥</text><circle cx="400.0" cy="180.0" fill="none" r="35" stroke="cyan" stroke-width="2" /><text fill="white" font-size="30px" x="385.0" y="190.0">💡</text><circle cx="590.5255888325764" cy="290.0" fill="none" r="35" stroke="cyan" stroke-width="2" /><text fill="white" font-size="30px" x="575.5255888325764" y="300.0">📡</text><circle cx="590.5255888325764" cy="509.99999999999994" fill="none" r="35" stroke="cyan" stroke-width="2" /><text fill="white" font-size="30px" x="575.5255888325764" y="520.0">🛡️</text><circle cx="400.0" cy="620.0" fill="none" r="35" stroke="cyan" stroke-width="2" /><text fill="white" font-size="30px" x="385.0" y="630.0">✨</text><circle cx="209.47441116742357" cy="510.00000000000006" fill="none" r="35" stroke="cyan" stroke-width="2" /><text fill="white" font-size="30px" x="194.47441116742357" y="520.0">🧬</text><circle cx="209.47441116742354" cy="290.0" fill="none" r="35" stroke="cyan" stroke-width="2" /><text fill="white" font-size="30px" x="194.47441116742354" y="300.0">⚡</text><line stroke="white" stroke-width="1" x1="400.0" x2="400.0" y1="400.0" y2="180.0" /><line stroke="white" stroke-width="1" x1="400.0" x2="590.5255888325764" y1="400.0" y2="290.0" /><line stroke="white" stroke-width="1" x1="400.0" x2="590.5255888325764" y1="400.0" y2="509.99999999999994" /><line stroke="white" stroke-width="1" x1="400.0" x2="400.0" y1="400.0" y2="620.0" /><line stroke="white" stroke-width="1" x1="400.0" x2="209.47441116742357" y1="400.0" y2="510.00000000000006" /><line stroke="white" stroke-width="1" x1="400.0" x2="209.47441116742354" y1="400.0" y2="290.0" /><line stroke="white" stroke-dasharray="5,5" stroke-width="1" x1="400.0" x2="590.5255888325764" y1="180.0" y2="290.0" /><line stroke="white" stroke-dasharray="5,5" stroke-width="1" x1="590.5255888325764" x2="590.5255888325764" y1="290.0" y2="509.99999999999994" /><line stroke="white" stroke-dasharray="5,5" stroke-width="1" x1="590.5255888325764" x2="400.0" y1="509.99999999999994" y2="620.0" /><line stroke="white" stroke-dasharray="5,5" stroke-width="1" x1="400.0" x2="209.47441116742357" y1="620.0" y2="510.00000000000006" /><line stroke="white" stroke-dasharray="5,5" stroke-width="1" x1="209.47441116742357" x2="209.47441116742354" y1="510.00000000000006" y2="290.0" /><line stroke="white" stroke-dasharray="5,5" stroke-width="1" x1="209.47441116742354" x2="400.0" y1="290.0" y2="180.0" /><circle cx="400.0" cy="400.0" fill="none" id="hex-pulse" r="220" stroke="lime" stroke-width="1" /><text fill="white" font-size="28px" x="385.0" y="110.0">🔮</text><text fill="white" font-size="28px" x="385.0" y="690.0">👣</text><text fill="white" font-size="28px" x="105.0" y="410.0">🫂</text><text fill="white" font-size="28px" x="655.0" y="410.0">💡</text><text fill="white" font-size="28px" x="531.6666666666666" y="556.6666666666666">🚀</text><text fill="white" font-size="28px" x="208.33333333333334" y="233.33333333333334">✅</text></svg>